HIERARCHY
ROOT Hips
{
 OFFSET 0.000000 0.000000 0.000000
 CHANNELS 6 Xposition Yposition Zposition Yrotation Xrotation Zrotation
 JOINT Chest
 {
  OFFSET 0.000000 9.581000 -0.001100
  CHANNELS 3 Yrotation Xrotation Zrotation
  JOINT Chest2
  {
   OFFSET 0.000000 9.561100 0.002200
   CHANNELS 3 Yrotation Xrotation Zrotation
   JOINT Chest3
   {
    OFFSET 0.000000 9.521100 0.000000
    CHANNELS 3 Yrotation Xrotation Zrotation
    JOINT Chest4
    {
     OFFSET 0.000000 9.511400 0.000000
     CHANNELS 3 Yrotation Xrotation Zrotation
     JOINT Neck
     {
      OFFSET 0.000000 14.375100 0.000000
      CHANNELS 3 Yrotation Xrotation Zrotation
      JOINT Head
      {
       OFFSET 0.000000 8.901200 0.004600
       CHANNELS 3 Yrotation Xrotation Zrotation
       End Site
       {
        OFFSET 0.000000 16.962200 0.002400
       }
      }
     }
     JOINT RightCollar
     {
      OFFSET -2.920100 9.518800 0.000000
      CHANNELS 3 Yrotation Xrotation Zrotation
      JOINT RightShoulder
      {
       OFFSET -13.664500 0.000000 0.000000
       CHANNELS 3 Yrotation Xrotation Zrotation
       JOINT RightElbow
       {
        OFFSET 0.000000 -29.999200 0.000000
        CHANNELS 3 Yrotation Xrotation Zrotation
        JOINT RightWrist
        {
         OFFSET 0.000000 -24.253600 0.000000
         CHANNELS 3 Yrotation Xrotation Zrotation
         End Site
         {
          OFFSET 0.000000 -17.918900 0.000000
         }
        }
       }
      }
     }
     JOINT LeftCollar
     {
      OFFSET 2.920100 9.518800 0.000000
      CHANNELS 3 Yrotation Xrotation Zrotation
      JOINT LeftShoulder
      {
       OFFSET 13.664500 0.000000 0.000000
       CHANNELS 3 Yrotation Xrotation Zrotation
       JOINT LeftElbow
       {
        OFFSET 0.000000 -29.999200 0.000000
        CHANNELS 3 Yrotation Xrotation Zrotation
        JOINT LeftWrist
        {
         OFFSET 0.000000 -24.253600 0.000000
         CHANNELS 3 Yrotation Xrotation Zrotation
         End Site
         {
          OFFSET 0.000000 -17.918900 0.000000
         }
        }
       }
      }
     }
    }
   }
  }
 }
 JOINT RightHip
 {
  OFFSET -7.797300 0.005300 0.000500
  CHANNELS 3 Yrotation Xrotation Zrotation
  JOINT RightKnee
  {
   OFFSET 0.000000 -40.663400 -0.000500
   CHANNELS 3 Yrotation Xrotation Zrotation
   JOINT RightAnkle
   {
    OFFSET 0.000000 -39.523700 -0.000900
    CHANNELS 3 Yrotation Xrotation Zrotation
    JOINT RightToe
    {
     OFFSET 0.000000 -6.418000 14.485300
     CHANNELS 3 Yrotation Xrotation Zrotation
     End Site
     {
      OFFSET 0.000000 -1.465200 6.326400
     }
    }
   }
  }
 }
 JOINT LeftHip
 {
  OFFSET 7.797300 0.005300 0.000500
  CHANNELS 3 Yrotation Xrotation Zrotation
  JOINT LeftKnee
  {
   OFFSET 0.000000 -40.663400 -0.000500
   CHANNELS 3 Yrotation Xrotation Zrotation
   JOINT LeftAnkle
   {
    OFFSET 0.000000 -39.523700 -0.000900
    CHANNELS 3 Yrotation Xrotation Zrotation
    JOINT LeftToe
    {
     OFFSET 0.000000 -6.418000 14.485300
     CHANNELS 3 Yrotation Xrotation Zrotation
     End Site
     {
      OFFSET 0.000000 -1.465200 6.326400
     }
    }
   }
  }
 }
}
MOTION
Frames: 6
Frame Time: 0.008333
-21.900487 126.370193 68.467756 -170.537060 -27.029454 -1.355343 -1.999446 20.640664 0.923659 -0.272944 2.660483 0.156210 -0.442821 4.359462 0.239117 -1.717976 17.669207 0.818189 -0.021826 15.295270 -0.513166 0.104154 -9.720167 -0.564031 -6.158912 -2.201677 1.675855 -17.275685 -9.594265 -1.106132 -86.159466 -22.611167 88.944193 -28.304662 -0.045365 -6.204740 -6.455564 -1.261326 0.048539 11.452480 -10.761178 3.763338 70.439844 -32.427789 -82.482698 21.206552 -18.413199 16.865509 -8.903289 -59.401280 5.796908 -33.727724 67.776901 -34.167727 27.690132 37.213881 18.783787 0.001447 0.016696 0.000641 -10.385766 -49.498692 -6.567977 31.374290 78.665477 21.652742 0.495328 -3.056379 7.278004 -0.000734 -0.000262 -0.000325
-21.899751 126.370699 68.469318 -170.527948 -27.044604 -1.354167 -2.010557 20.646808 0.926681 -0.272915 2.664910 0.151109 -0.441471 4.355254 0.244458 -1.723072 17.672426 0.819951 -0.016464 15.260970 -0.556043 0.110484 -9.728597 -0.588981 -6.149086 -2.210973 1.666923 -17.250551 -9.633370 -1.116668 -86.176031 -22.604915 88.959353 -28.295800 -0.058810 -6.206875 -6.440360 -1.288415 0.036356 11.433567 -10.734735 3.768655 70.425312 -32.439649 -82.510090 21.201135 -18.419268 16.886464 -8.869837 -59.392273 5.755197 -33.739161 67.759980 -34.170220 27.777731 37.268857 18.862898 0.005396 0.017269 0.002391 -10.416271 -49.489959 -6.545184 31.335760 78.664917 21.586730 0.495144 -3.043468 7.283182 0.000545 -0.000921 0.000241
-21.899190 126.371042 68.471014 -170.532753 -27.057332 -1.345496 -2.010246 20.652496 0.929552 -0.273900 2.667961 0.144836 -0.443924 4.353133 0.259957 -1.729619 17.677816 0.809944 -0.010418 15.242068 -0.579148 0.111164 -9.729823 -0.599079 -6.118519 -2.252586 1.663972 -17.247185 -9.640411 -1.143392 -86.189562 -22.580431 88.984269 -28.293751 -0.066017 -6.199133 -6.428827 -1.319398 0.024740 11.417208 -10.720932 3.772811 70.383261 -32.507401 -82.535391 21.199635 -18.408142 16.923076 -8.843012 -59.382117 5.731938 -33.725840 67.747205 -34.156981 27.803614 37.304645 18.903981 0.003915 0.013555 0.001735 -10.411481 -49.479279 -6.547267 31.317982 78.662642 21.561971 0.493391 -3.040477 7.284245 0.000283 -0.000084 0.000126
-21.900455 126.371647 68.472229 -170.531970 -27.072931 -1.329577 -2.017459 20.661766 0.922250 -0.275309 2.664545 0.157609 -0.444430 4.361715 0.239539 -1.731670 17.681049 0.824195 -0.009284 15.225170 -0.603506 0.128082 -9.760829 -0.636154 -6.098256 -2.287683 1.651453 -17.239766 -9.652996 -1.160861 -86.199583 -22.542182 89.009284 -28.291689 -0.066927 -6.184840 -6.421519 -1.387434 0.005814 11.403647 -10.686183 3.786028 70.359877 -32.523537 -82.513829 21.139888 -18.362711 16.923500 -8.789455 -59.378130 5.679410 -33.708210 67.748765 -34.134868 27.769980 37.343790 18.933034 0.000535 0.004643 0.000237 -10.392877 -49.466531 -6.572681 31.320283 78.657968 21.561845 0.489714 -3.037171 7.285650 -0.000116 -0.000033 -0.000052
-21.899540 126.371633 68.474331 -170.529553 -27.078576 -1.327364 -2.018565 20.661969 0.930002 -0.276167 2.665031 0.158143 -0.451870 4.362724 0.240120 -1.736157 17.683173 0.825986 -0.000198 15.212232 -0.625379 0.137288 -9.777314 -0.660513 -6.085489 -2.300102 1.636757 -17.224951 -9.679439 -1.163731 -86.206091 -22.498714 89.032346 -28.287264 -0.061481 -6.166586 -6.414072 -1.421059 -0.011916 11.398972 -10.658485 3.793764 70.346082 -32.547960 -82.514721 21.093836 -18.328412 16.920161 -8.769032 -59.382030 5.653122 -33.656834 67.743014 -34.079445 27.845311 37.409343 19.004050 0.009959 0.001378 0.004413 -10.404837 -49.460029 -6.563815 31.323765 78.652795 21.554729 0.485110 -3.036938 7.286713 -0.000473 0.003247 -0.000209
-21.900756 126.371604 68.476724 -170.524991 -27.083280 -1.314540 -2.025353 20.660228 0.925702 -0.277507 2.667211 0.156225 -0.449427 4.358018 0.255659 -1.747664 17.684778 0.832071 0.000602 15.202353 -0.662640 0.129873 -9.767567 -0.659583 -6.080374 -2.308935 1.606475 -17.206973 -9.705685 -1.161769 -86.211556 -22.458598 89.051933 -28.279556 -0.052775 -6.149855 -6.416948 -1.452411 -0.043916 11.400217 -10.641337 3.800780 70.309073 -32.600027 -82.513081 21.111247 -18.329804 16.936668 -8.742981 -59.400580 5.603568 -33.646683 67.762591 -34.062325 27.817556 37.463968 19.045555 0.003006 -0.003070 0.001332 -10.401380 -49.457591 -6.574636 31.310832 78.648883 21.532968 0.482617 -3.032702 7.286178 0.001028 0.004014 0.000455
